HIERARCHY
ROOT Hips
{
  OFFSET -4.35178 90.3298 111.633
  CHANNELS 6 Xposition Yposition Zposition Zrotation Xrotation Yrotation
  JOINT LeftUpLeg
  {
    OFFSET 0.103456 1.85784 10.5485
    CHANNELS 6 Xposition Yposition Zposition Zrotation Xrotation Yrotation
    JOINT LeftLeg
    {
      OFFSET 43.5 -4.2e-05 0
      CHANNELS 6 Xposition Yposition Zposition Zrotation Xrotation Yrotation
      JOINT LeftFoot
      {
        OFFSET 42.3722 1.9e-05 0
        CHANNELS 6 Xposition Yposition Zposition Zrotation Xrotation Yrotation
        JOINT LeftToe
        {
          OFFSET 17.3 0 0
          CHANNELS 6 Xposition Yposition Zposition Zrotation Xrotation Yrotation
          End Site
          {
            OFFSET 0 0 0
          }
        }
      }
    }
  }
  JOINT RightUpLeg
  {
    OFFSET 0.103456 1.85782 -10.5485
    CHANNELS 6 Xposition Yposition Zposition Zrotation Xrotation Yrotation
    JOINT RightLeg
    {
      OFFSET 43.5 -2.7e-05 0
      CHANNELS 6 Xposition Yposition Zposition Zrotation Xrotation Yrotation
      JOINT RightFoot
      {
        OFFSET 42.3723 0 0
        CHANNELS 6 Xposition Yposition Zposition Zrotation Xrotation Yrotation
        JOINT RightToe
        {
          OFFSET 17.3 0 1.7e-05
          CHANNELS 6 Xposition Yposition Zposition Zrotation Xrotation Yrotation
          End Site
          {
            OFFSET 0 0 0
          }
        }
      }
    }
  }
  JOINT Spine
  {
    OFFSET 6.90197 -2.60373 0
    CHANNELS 6 Xposition Yposition Zposition Zrotation Xrotation Yrotation
    JOINT Spine1
    {
      OFFSET 12.5881 0 0
      CHANNELS 6 Xposition Yposition Zposition Zrotation Xrotation Yrotation
      JOINT Spine2
      {
        OFFSET 12.3432 -1.8e-05 0
        CHANNELS 6 Xposition Yposition Zposition Zrotation Xrotation Yrotation
        JOINT Neck
        {
          OFFSET 25.8329 2.3e-05 0
          CHANNELS 6 Xposition Yposition Zposition Zrotation Xrotation Yrotation
          JOINT Head
          {
            OFFSET 11.7666 0 0
            CHANNELS 6 Xposition Yposition Zposition Zrotation Xrotation Yrotation
            End Site
            {
              OFFSET 0 0 0
            }
          }
        }
        JOINT LeftShoulder
        {
          OFFSET 19.7459 -1.48035 6.0001
          CHANNELS 6 Xposition Yposition Zposition Zrotation Xrotation Yrotation
          JOINT LeftArm
          {
            OFFSET 11.2841 1.8e-05 -2e-05
            CHANNELS 6 Xposition Yposition Zposition Zrotation Xrotation Yrotation
            JOINT LeftForeArm
            {
              OFFSET 33 -1.3e-05 1.9e-05
              CHANNELS 6 Xposition Yposition Zposition Zrotation Xrotation Yrotation
              JOINT LeftHand
              {
                OFFSET 25.2 3.2e-05 1.1e-05
                CHANNELS 6 Xposition Yposition Zposition Zrotation Xrotation Yrotation
                End Site
                {
                  OFFSET 0 0 0
                }
              }
            }
          }
        }
        JOINT RightShoulder
        {
          OFFSET 19.7461 -1.48036 -6.00008
          CHANNELS 6 Xposition Yposition Zposition Zrotation Xrotation Yrotation
          JOINT RightArm
          {
            OFFSET 11.2841 0 0
            CHANNELS 6 Xposition Yposition Zposition Zrotation Xrotation Yrotation
            JOINT RightForeArm
            {
              OFFSET 33.0001 1.6e-05 0
              CHANNELS 6 Xposition Yposition Zposition Zrotation Xrotation Yrotation
              JOINT RightHand
              {
                OFFSET 25.1998 0.000123 0.000432
                CHANNELS 6 Xposition Yposition Zposition Zrotation Xrotation Yrotation
                End Site
                {
                  OFFSET 0 0 0
                }
              }
            }
          }
        }
      }
    }
  }
}
MOTION
Frames:	10
Frame Time:	0.0333333
-88.0684 89.829 -90.4284 -24.49 -83.6353 -111.53 0.103456 1.85784 10.5485 8.38921 17.8181 -178.718 43.5 -4.2e-05 1e-05 -13.1269 -9.58132 -3.90863 42.3722 1.9e-05 -1.42109e-14 78.0217 2.68919 -3.5018 17.3 7.10543e-15 3e-06 21.4546 -1e-06 0.003093 0.103456 1.85782 -10.5485 10.1533 -1.97118 173.096 43.5 -2.7e-05 4e-06 -8.73375 11.1919 3.32654 42.3723 0 1e-05 85.4291 16.7821 -11.2248 17.3 -6e-06 1.7e-05 21.4546 -1.9e-05 -0.003116 6.90197 -2.60373 -3e-06 7.34751 0.761518 0.432074 12.5881 1e-05 8e-06 4.65579 1.64101 0.780307 12.3432 -1.8e-05 -5e-06 4.31093 1.75368 0.688512 25.8329 2.3e-05 7e-06 2.55041 -0.389579 -2.28372 11.7666 -8e-06 -6e-06 -30.4485 -9.02284 10.9369 19.7459 -1.48035 6.0001 175.933 -8.50987 -102.734 11.2841 1.8e-05 -2e-05 2.12072 -27.1774 36.4159 33 -1.3e-05 1.9e-05 -13.1552 9.803 -17.2133 25.2 3.2e-05 1.1e-05 0.0475626 29.7104 3.60657 19.7461 -1.48036 -6.00008 -171.321 -5.95171 80.4259 11.2841 0 -1e-06 25.5276 4.81834 -2.72132 33.0001 1.6e-05 -1e-06 -37.9387 9.35489 23.7484 25.1998 0.000123 0.000432 22.0938 -10.6214 7.88867 
-88.0672 89.8317 -90.4283 -24.6302 -83.6623 -111.678 0.103456 1.85784 10.5485 8.31323 17.7991 -178.689 43.5 -4.2e-05 1e-05 -13.1825 -9.59302 -3.92207 42.3722 1.9e-05 -7.10543e-15 78.0602 2.70645 -3.45983 17.3 -7.10543e-15 3e-06 21.4546 -1e-06 0.003093 0.103456 1.85782 -10.5485 10.092 -1.96051 173.106 43.5 -2.7e-05 4e-06 -8.78602 11.1811 3.32641 42.3723 7.10543e-15 1e-05 85.4447 16.8204 -11.224 17.3 -6e-06 1.7e-05 21.4546 -1.9e-05 -0.003116 6.90197 -2.60373 -3e-06 7.36409 0.748009 0.432072 12.5881 1e-05 8e-06 4.68936 1.61439 0.779791 12.3432 -1.8e-05 -5e-06 4.34486 1.7276 0.689683 25.8329 2.3e-05 7e-06 2.56933 -0.517907 -2.19398 11.7666 -8e-06 -6e-06 -30.3704 -9.22307 10.9156 19.7459 -1.48035 6.0001 175.887 -8.58064 -102.729 11.2841 1.8e-05 -2e-05 2.08868 -27.1735 36.3924 33 -1.3e-05 1.9e-05 -13.1242 9.88503 -17.2114 25.2 3.2e-05 1.1e-05 -0.0350243 29.7457 3.60784 19.7461 -1.48036 -6.00008 -171.351 -5.98108 80.46 11.2841 0 -1e-06 25.5407 4.89647 -2.7401 33.0001 1.6e-05 -1e-06 -37.8829 9.40222 23.7646 25.1998 0.000123 0.000432 22.0997 -10.5984 7.879 
-88.0654 89.8327 -90.4298 -25.0321 -83.6694 -112.101 0.103456 1.85784 10.5485 8.26451 17.7691 -178.675 43.5 -4.2e-05 1e-05 -13.2208 -9.62387 -3.92502 42.3722 1.9e-05 -1.42109e-14 78.0741 2.70284 -3.39222 17.3 -7.10543e-15 3e-06 21.4546 -1e-06 0.003093 0.103456 1.85782 -10.5485 10.0462 -1.96713 173.125 43.5 -2.7e-05 4e-06 -8.79786 11.1703 3.32629 42.3723 0 1e-05 85.4582 16.8221 -11.1987 17.3 -6e-06 1.7e-05 21.4546 -1.9e-05 -0.003116 6.90197 -2.60373 -3e-06 7.38218 0.754147 0.42507 12.5881 1e-05 8e-06 4.72555 1.62618 0.764774 12.3432 -1.8e-05 -5e-06 4.38092 1.73898 0.674036 25.8329 2.3e-05 7e-06 2.57697 -0.517739 -2.16805 11.7666 -8e-06 -6e-06 -30.3458 -9.27214 10.9528 19.7459 -1.48035 6.0001 175.853 -8.60539 -102.725 11.2841 1.8e-05 -2e-05 2.00625 -27.1812 36.3335 33 -1.3e-05 1.9e-05 -13.132 9.92041 -17.2062 25.2 3.2e-05 1.1e-05 0.00320463 29.7827 3.59991 19.7461 -1.48036 -6.00008 -171.365 -5.97559 80.4645 11.2841 0 -1e-06 25.574 4.92946 -2.75377 33.0001 1.6e-05 -1e-06 -37.8462 9.48041 23.7468 25.1998 0.000123 0.000432 22.1148 -10.5588 7.87742 
-88.0648 89.8333 -90.43 -25.6783 -83.6696 -112.769 0.103456 1.85784 10.5485 8.21997 17.752 -178.66 43.5 -4.2e-05 1e-05 -13.2384 -9.65362 -3.92135 42.3722 1.9e-05 -7.10543e-15 78.0855 2.68543 -3.34613 17.3 -7.10543e-15 3e-06 21.4546 -1e-06 0.003093 0.103456 1.85782 -10.5485 10.0083 -1.9867 173.137 43.5 -2.7e-05 4e-06 -8.76897 11.1472 3.32602 42.3723 1.42109e-14 1e-05 85.421 16.7926 -11.1503 17.3 -6e-06 1.7e-05 21.4546 -1.9e-05 -0.003116 6.90197 -2.60373 -3e-06 7.39348 0.760142 0.417805 12.5881 1e-05 8e-06 4.74813 1.63743 0.749304 12.3432 -1.8e-05 -5e-06 4.40344 1.74961 0.657919 25.8329 2.3e-05 7e-06 2.60567 -0.501291 -2.16528 11.7666 -8e-06 -6e-06 -30.2796 -9.30461 11.0075 19.7459 -1.48035 6.0001 175.826 -8.61955 -102.74 11.2841 1.8e-05 -2e-05 2.0037 -27.1837 36.3151 33 -1.3e-05 1.9e-05 -13.1656 9.92473 -17.1755 25.2 3.2e-05 1.1e-05 -0.146092 29.7142 3.68816 19.7461 -1.48036 -6.00008 -171.417 -5.96441 80.5067 11.2841 -1.42109e-14 -1e-06 25.5021 4.98231 -2.8206 33.0001 1.6e-05 -1e-06 -37.7499 9.51079 23.7378 25.1998 0.000123 0.000432 22.1224 -10.5457 7.85276 
-88.0645 89.8327 -90.4305 -26.3026 -83.6729 -113.412 0.103456 1.85784 10.5485 8.17394 17.7618 -178.639 43.5 -4.2e-05 1e-05 -13.257 -9.68301 -3.92365 42.3722 1.9e-05 7.10543e-15 78.1033 2.68347 -3.31572 17.3 7.10543e-15 3e-06 21.4546 -1e-06 0.003093 0.103456 1.85782 -10.5485 9.95719 -1.992 173.153 43.5 -2.7e-05 4e-06 -8.76515 11.13 3.32583 42.3723 7.10543e-15 1e-05 85.4221 16.788 -11.0993 17.3 -6e-06 1.7e-05 21.4546 -1.9e-05 -0.003116 6.90197 -2.60373 -3e-06 7.40233 0.768051 0.403869 12.5881 1e-05 8e-06 4.76593 1.65149 0.720259 12.3432 -1.8e-05 -5e-06 4.42117 1.76211 0.628101 25.8329 2.3e-05 7e-06 2.63651 -0.47968 -2.16258 11.7666 -8e-06 -6e-06 -30.1841 -9.29701 11.0377 19.7459 -1.48035 6.0001 175.79 -8.60339 -102.762 11.2841 1.8e-05 -2e-05 2.06031 -27.2488 36.3245 33 -1.3e-05 1.9e-05 -13.2542 9.77539 -17.1468 25.2 3.2e-05 1.1e-05 0.290684 29.7916 3.5086 19.7461 -1.48036 -6.00008 -171.439 -5.97435 80.5508 11.2841 7.10543e-15 -1e-06 25.5056 5.08131 -2.9279 33.0001 1.6e-05 -1e-06 -37.8184 9.59556 23.7028 25.1998 0.000123 0.000432 22.1479 -10.4835 7.81725 
-88.0632 89.8283 -90.4307 -26.9417 -83.6713 -114.072 0.103456 1.85784 10.5485 8.11698 17.7499 -178.606 43.5 -4.2e-05 1e-05 -13.3162 -9.71469 -3.93776 42.3722 1.9e-05 1.42109e-14 78.1418 2.66513 -3.25898 17.3 0 3e-06 21.4546 -1e-06 0.003093 0.103456 1.85782 -10.5485 9.91409 -1.97777 173.18 43.5 -2.7e-05 4e-06 -8.76729 11.1078 3.32557 42.3723 0 1e-05 85.4136 16.78 -11.0643 17.3 -6e-06 1.7e-05 21.4546 -1.9e-05 -0.003116 6.90197 -2.60373 -3e-06 7.41052 0.768293 0.398066 12.5881 1e-05 8e-06 4.7827 1.64797 0.708828 12.3432 -1.8e-05 -5e-06 4.43801 1.76159 0.616932 25.8329 2.3e-05 7e-06 2.67444 -0.520248 -2.16035 11.7666 -8e-06 -6e-06 -30.0242 -9.3354 11.0311 19.7459 -1.48035 6.0001 175.801 -8.62433 -102.71 11.2841 1.8e-05 -2e-05 1.97464 -27.1499 36.2395 33 -1.3e-05 1.9e-05 -13.2409 9.88013 -17.1413 25.2 3.2e-05 1.1e-05 0.275692 29.8881 3.457 19.7461 -1.48036 -6.00008 -171.547 -5.96846 80.6286 11.2841 -1.42109e-14 -1e-06 25.4165 5.22362 -3.01189 33.0001 1.6e-05 -1e-06 -37.7796 9.62759 23.7254 25.1998 0.000123 0.000432 22.1457 -10.4598 7.8061 
-88.0628 89.8235 -90.4304 -27.5622 -83.6726 -114.705 0.103456 1.85784 10.5485 8.05637 17.7479 -178.597 43.5 -4.2e-05 1e-05 -13.3787 -9.74864 -3.9405 42.3722 1.9e-05 7.10543e-15 78.1583 2.69408 -3.17966 17.3 0 3e-06 21.4546 -1e-06 0.003093 0.103456 1.85782 -10.5485 9.89242 -1.97527 173.178 43.5 -2.7e-05 4e-06 -8.72694 11.0866 3.32919 42.3723 1.42109e-14 1e-05 85.3731 16.7772 -11.0139 17.3 -6e-06 1.7e-05 21.4546 -1.9e-05 -0.003116 6.90197 -2.60373 -3e-06 7.42586 0.765763 0.394819 12.5881 1e-05 8e-06 4.81323 1.64633 0.702274 12.3432 -1.8e-05 -5e-06 4.46862 1.75655 0.610551 25.8329 2.3e-05 7e-06 2.69983 -0.557894 -2.16111 11.7666 -8e-06 -6e-06 -29.9174 -9.36489 11.0132 19.7459 -1.48035 6.0001 175.799 -8.67252 -102.685 11.2841 1.8e-05 -2e-05 1.92064 -27.0484 36.2436 33 -1.3e-05 1.9e-05 -13.2332 9.99872 -17.1068 25.2 3.2e-05 1.1e-05 0.0140036 29.8222 3.64085 19.7461 -1.48036 -6.00008 -171.632 -5.95026 80.6625 11.2841 -7.10543e-15 -1e-06 25.335 5.26881 -2.98722 33.0001 1.6e-05 -1e-06 -37.8143 9.6523 23.7189 25.1998 0.000123 0.000432 22.0798 -10.4445 7.79927 
-88.0645 89.82 -90.4305 -28.1149 -83.6816 -115.257 0.103456 1.85784 10.5485 7.99655 17.7587 -178.584 43.5 -4.2e-05 1e-05 -13.4435 -9.76613 -3.95041 42.3722 1.9e-05 7.10543e-15 78.2021 2.70736 -3.15126 17.3 7.10543e-15 3e-06 21.4546 -1e-06 0.003093 0.103456 1.85782 -10.5485 9.85935 -1.95914 173.17 43.5 -2.7e-05 4e-06 -8.71787 11.0804 3.33559 42.3723 0 1e-05 85.3935 16.7549 -10.9769 17.3 -6e-06 1.7e-05 21.4546 -1.9e-05 -0.003116 6.90197 -2.60373 -3e-06 7.4388 0.762584 0.395184 12.5881 1e-05 8e-06 4.83921 1.64034 0.702611 12.3432 -1.8e-05 -5e-06 4.49467 1.751 0.611286 25.8329 2.3e-05 7e-06 2.72259 -0.576019 -2.16868 11.7666 -8e-06 -6e-06 -29.8428 -9.37629 11.0008 19.7459 -1.48035 6.0001 175.804 -8.73758 -102.67 11.2841 1.8e-05 -2e-05 1.86038 -26.9464 36.2649 33 -1.3e-05 1.9e-05 -13.2102 10.1035 -17.0784 25.2 3.2e-05 1.1e-05 -0.158965 29.8233 3.71105 19.7461 -1.48036 -6.00008 -171.718 -5.89424 80.6607 11.2841 1.42109e-14 -1e-06 25.2279 5.22934 -2.86734 33.0001 1.6e-05 -1e-06 -37.9266 9.58449 23.7227 25.1998 0.000123 0.000432 22.0303 -10.4739 7.79778 
-88.0658 89.8156 -90.4292 -28.6911 -83.6762 -115.832 0.103456 1.85784 10.5485 7.95409 17.8033 -178.595 43.5 -4.2e-05 1e-05 -13.5195 -9.77817 -3.95438 42.3722 1.9e-05 2.13163e-14 78.2366 2.73385 -3.12468 17.3 7.10543e-15 3e-06 21.4546 -1e-06 0.003093 0.103456 1.85782 -10.5485 9.83666 -1.92489 173.138 43.5 -2.7e-05 4e-06 -8.71586 11.0755 3.34963 42.3723 -1.42109e-14 1e-05 85.4097 16.797 -10.9406 17.3 -6e-06 1.7e-05 21.4546 -1.9e-05 -0.003116 6.90197 -2.60373 -3e-06 7.45828 0.750627 0.396927 12.5881 1e-05 8e-06 4.87844 1.61738 0.708263 12.3432 -1.8e-05 -5e-06 4.53418 1.72902 0.618403 25.8329 2.3e-05 7e-06 2.72653 -0.583243 -2.18628 11.7666 -8e-06 -6e-06 -29.7468 -9.34757 10.9711 19.7459 -1.48035 6.0001 175.867 -8.76253 -102.615 11.2841 1.8e-05 -2e-05 1.85439 -26.7547 36.3179 33 -1.3e-05 1.9e-05 -13.2328 10.1939 -17.0605 25.2 3.2e-05 1.1e-05 -0.111117 29.9368 3.62671 19.7461 -1.48036 -6.00008 -171.827 -5.87599 80.6722 11.2841 0 -1e-06 25.1249 5.24806 -2.72609 33.0001 1.6e-05 -1e-06 -38.098 9.54729 23.7655 25.1998 0.000123 0.000432 21.9692 -10.4799 7.85371 
-88.0906 89.8113 -90.4337 -29.1445 -83.6842 -116.256 0.103456 1.85784 10.5485 7.86229 17.8437 -178.627 43.5 -4.2e-05 1e-05 -13.7029 -9.7894 -3.95821 42.3722 1.9e-05 -7.10543e-15 78.3348 2.83421 -3.06854 17.3 0 3e-06 21.4546 -1e-06 0.003093 0.103456 1.85782 -10.5485 9.81788 -1.90172 173.064 43.5 -2.7e-05 4e-06 -8.72009 11.0642 3.38389 42.3723 7.10543e-15 1e-05 85.4436 16.8946 -10.8833 17.3 -6e-06 1.7e-05 21.4546 -1.9e-05 -0.003116 6.90197 -2.60373 -3e-06 7.46929 0.73438 0.399195 12.5881 1e-05 8e-06 4.90081 1.58561 0.71499 12.3432 -1.8e-05 -5e-06 4.55693 1.69807 0.627104 25.8329 2.3e-05 7e-06 2.73649 -0.622824 -2.20643 11.7666 -8e-06 -6e-06 -29.6607 -9.33353 10.9155 19.7459 -1.48035 6.0001 175.903 -8.77906 -102.589 11.2841 1.8e-05 -2e-05 1.97284 -26.6294 36.4589 33 -1.3e-05 1.9e-05 -13.2809 10.1204 -17.0306 25.2 3.2e-05 1.1e-05 -0.0449061 29.9168 3.60326 19.7461 -1.48036 -6.00008 -171.931 -5.84772 80.7094 11.2841 -7.10543e-15 -1e-06 25.0136 5.27273 -2.60266 33.0001 1.6e-05 -1e-06 -38.3175 9.49332 23.8102 25.1998 0.000123 0.000432 21.8962 -10.4897 7.91843 
